<svg id="Capa_1" data-name="Capa 1" xmlns="http://www.w3.org/2000/svg" viewBox="0 0 185.17 211.93"><defs><style>.cls-1,.cls-2{fill:#c5d200;}.cls-2{fill-rule:evenodd;}.cls-3{fill:#112523;}.cls-4{fill:#6f6f6e;}</style></defs><title>Ecomodular</title><path class="cls-1" d="M212.4,212.63a9.25,9.25,0,0,0-15.79,6.54v19.78h18.52V219.16a9.23,9.23,0,0,0-2.72-6.54m-6.54-52.73a3.73,3.73,0,0,1,0-7.47,55.19,55.19,0,0,1,55,55v35.45a3.73,3.73,0,0,1-3.73,3.73H154.56a3.73,3.73,0,0,1-3.73-3.73V207.47a3.73,3.73,0,0,1,7.47,0v31.72h30.85v-20a16.66,16.66,0,0,1,4.91-11.8h0a16.72,16.72,0,0,1,28.52,11.81v20h30.85V207.47A47.72,47.72,0,0,0,205.87,159.89Z" transform="translate(-113.09 -107.08)"/><path class="cls-1" d="M170.18,134.23A57.73,57.73,0,0,0,155,115.5,57.46,57.46,0,0,0,155,205a57.56,57.56,0,0,0,15.18-70.74m-12.91-26.39a64.92,64.92,0,0,1-.07,104.83,3.73,3.73,0,0,1-4.47,0,64.92,64.92,0,0,1,.07-104.82A3.73,3.73,0,0,1,157.27,107.85Z" transform="translate(-113.09 -107.08)"/><path class="cls-1" d="M162.39,125.19a31.84,31.84,0,0,0-7.39-9.5,31.68,31.68,0,0,0,0,47.69,31.77,31.77,0,0,0,7.39-38.19M157.27,108a39.15,39.15,0,0,1-.06,63.19,3.73,3.73,0,0,1-4.47,0,39.15,39.15,0,0,1,.06-63.19A3.73,3.73,0,0,1,157.27,108Z" transform="translate(-113.09 -107.08)"/><path class="cls-1" d="M128.69,203.51a16.14,16.14,0,0,0-5.14-.92,16.15,16.15,0,0,0,.67,5.18,16,16,0,0,0,10,10.48,16.13,16.13,0,0,0,5.14.92,16.14,16.14,0,0,0-.67-5.18,16,16,0,0,0-10-10.48m-8.18-6.7a21.95,21.95,0,0,1,24.43,25.7,3,3,0,0,1-2.56,2.43,21.95,21.95,0,0,1-24.43-25.7A3,3,0,0,1,120.51,196.82Z" transform="translate(-113.09 -107.08)"/><path class="cls-2" d="M219.74,179.46h14.71A3.58,3.58,0,0,1,238,183v13.15a3.58,3.58,0,0,1-3.57,3.57H219.74a3.58,3.58,0,0,1-3.57-3.57V183a3.58,3.58,0,0,1,3.57-3.57" transform="translate(-113.09 -107.08)"/><path class="cls-3" d="M192.25,300.69v-26H186l-5.85,11.47-5.84-11.47H168v26h6.39V288.23l3.69,6.43h4.09l3.69-6.43v12.46h6.39Zm106-18a5.83,5.83,0,0,0-4.6-1.83,6.81,6.81,0,0,0-4.64,1.83V281h-5.85v19.65h6V288.92a2.41,2.41,0,0,1,2.41-2.7,2.78,2.78,0,0,1,2.16,1Zm-23.94,10.67a2.51,2.51,0,0,1-.58,2,2.89,2.89,0,0,1-2.37.73,1.72,1.72,0,0,1-2-1.64,1.66,1.66,0,0,1,1.9-1.57h3v0.51Zm6,7.38V287.94c0-4.79-3-7.12-8.66-7.12-3.32,0-5.15.62-7.16,2.63l3.73,3.73a3.71,3.71,0,0,1,3.14-1.31c2.08,0,3,.66,3,2.45v0.51h-4c-4.68,0-6.69,2.74-6.69,5.7a6.41,6.41,0,0,0,1.72,4.6,6.55,6.55,0,0,0,4.71,1.75,5.42,5.42,0,0,0,4.38-1.79v1.61h5.85Zm-17.4,0v-5h-2.08a1.08,1.08,0,0,1-1.21-1.21V274.68h-6v20.2c0,2.7,1.75,5.81,6.1,5.81h3.18Zm-12.29,0V281h-6V292.8a2.43,2.43,0,1,1-4.82,0V281h-6V293.6a7.21,7.21,0,0,0,2,5.63,6.06,6.06,0,0,0,4.42,1.68,6.66,6.66,0,0,0,4.57-1.83v1.61h5.85Zm-25.8-9.83c0,2.85-.26,4.64-2.48,4.64s-2.48-1.79-2.48-4.64,0.26-4.64,2.48-4.64S224.82,288,224.82,290.86Zm6,9.83v-26h-6v7.78a5.76,5.76,0,0,0-4.38-1.64,6.69,6.69,0,0,0-4.75,1.79c-1.94,1.94-1.83,5.37-1.83,8.26s-0.11,6.32,1.83,8.26a6.79,6.79,0,0,0,4.79,1.79,5.81,5.81,0,0,0,4.53-1.83v1.61h5.81Zm-24.74-9.83c0,1.94-.11,3.32-0.88,4.09a2.63,2.63,0,0,1-3.21,0c-0.77-.77-0.88-2.16-0.88-4.09s0.11-3.32.88-4.09a2.63,2.63,0,0,1,3.21,0C206,287.54,206.07,288.92,206.07,290.86Zm6,0c0-3.84-.51-5.74-2.16-7.53a9.18,9.18,0,0,0-12.64,0c-1.64,1.79-2.16,3.69-2.16,7.53s0.51,5.73,2.16,7.53a9.18,9.18,0,0,0,12.64,0C211.55,296.59,212.06,294.73,212.06,290.86Zm-52.92,0c0,1.94-.11,3.32-0.88,4.09a2.63,2.63,0,0,1-3.21,0c-0.77-.77-0.88-2.16-0.88-4.09s0.11-3.32.88-4.09a2.63,2.63,0,0,1,3.21,0C159,287.54,159.14,288.92,159.14,290.86Zm6,0c0-3.84-.51-5.74-2.16-7.53a9.18,9.18,0,0,0-12.64,0c-1.64,1.79-2.16,3.69-2.16,7.53s0.51,5.73,2.16,7.53a9.18,9.18,0,0,0,12.64,0C164.62,296.59,165.13,294.73,165.13,290.86ZM148,298.39L144,294.33a3.19,3.19,0,0,1-2.41,1.17,2.42,2.42,0,0,1-1.86-.77c-0.69-.73-1-2-1-3.87s0.29-3.14,1-3.87a2.42,2.42,0,0,1,1.86-.77,3.19,3.19,0,0,1,2.41,1.17l4.05-4.05a8.75,8.75,0,0,0-6.47-2.52c-3.4,0-8.84,1.46-8.84,10s5.44,10,8.84,10A8.75,8.75,0,0,0,148,298.39Zm-17.25,2.3V295H119.48v-4.57h9.64v-5.7h-9.64v-4.35h11.29v-5.7H113.09v26h17.68Z" transform="translate(-113.09 -107.08)"/><path class="cls-4" d="M276.71,318.92H270.5v-9.7h6.21v1.32H272v2.83h4v1.31h-4v2.92h4.73v1.32Zm-14-2.77a2.75,2.75,0,0,1-.25,1.18,2.53,2.53,0,0,1-.73.91,3.26,3.26,0,0,1-1.11.56,4.82,4.82,0,0,1-1.4.19,5.7,5.7,0,0,1-1.93-.3,4.1,4.1,0,0,1-1.51-1l1-1a3.07,3.07,0,0,0,.72.54,2.88,2.88,0,0,0,.83.3,5,5,0,0,0,.94.09,2.45,2.45,0,0,0,1.47-.39,1.44,1.44,0,0,0,.15-2.1,1.15,1.15,0,0,0-.4-0.26,3.21,3.21,0,0,0-.66-0.15l-1.14-.16a3.3,3.3,0,0,1-1.84-.78,2.41,2.41,0,0,1-.71-1.85,2.81,2.81,0,0,1,.39-1.49,2.6,2.6,0,0,1,1.12-1,3.89,3.89,0,0,1,1.72-.36,4.88,4.88,0,0,1,1.69.26,3.87,3.87,0,0,1,1.32.84l-0.94.93a2.45,2.45,0,0,0-.62-0.45,2.69,2.69,0,0,0-.69-0.23,4,4,0,0,0-.79-0.07,2.17,2.17,0,0,0-1,.19,1.43,1.43,0,0,0-.61.54,1.48,1.48,0,0,0-.21.78,1.15,1.15,0,0,0,.37.9,1.87,1.87,0,0,0,.47.28,2.48,2.48,0,0,0,.62.17l1.1,0.17a5,5,0,0,1,1.09.27,2.31,2.31,0,0,1,.72.45A2.49,2.49,0,0,1,262.67,316.16Zm-14.31-.5a3.38,3.38,0,0,1-.45,1.75,3.11,3.11,0,0,1-1.25,1.18,4,4,0,0,1-3.56,0,3.12,3.12,0,0,1-1.24-1.18,3.37,3.37,0,0,1-.45-1.75v-6.43h1.47v6.36a2.41,2.41,0,0,0,.24,1.12,1.74,1.74,0,0,0,.7.73,2.32,2.32,0,0,0,2.12,0,1.75,1.75,0,0,0,.71-0.73,2.36,2.36,0,0,0,.25-1.12v-6.36h1.47v6.43ZM232,314.07a13,13,0,0,0-.11-2,1.87,1.87,0,0,0-.46-1,1.78,1.78,0,0,0-.64-0.44,2.06,2.06,0,0,0-1.61,0,1.78,1.78,0,0,0-.64.44,2,2,0,0,0-.46,1,13,13,0,0,0-.11,2q0,0.77,0,1.23a5.75,5.75,0,0,0,.09.81,2.21,2.21,0,0,0,.16.54,2,2,0,0,0,.3.43,1.9,1.9,0,0,0,.65.44,2.06,2.06,0,0,0,.8.16,1.89,1.89,0,0,0,1.44-.6,1.73,1.73,0,0,0,.36-0.59,3.47,3.47,0,0,0,.17-0.9C232,315.21,232,314.7,232,314.07Zm1.47,0c0,0.77,0,1.36,0,1.76a4.07,4.07,0,0,1-.24,1.14,2.89,2.89,0,0,1-.64,1,3.49,3.49,0,0,1-2.56,1,3.45,3.45,0,0,1-2.55-1,2.88,2.88,0,0,1-.65-1,4,4,0,0,1-.25-1.14c0-.41,0-1,0-1.77q0-.89,0-1.4a6.94,6.94,0,0,1,.11-1,3.22,3.22,0,0,1,.27-0.81,3,3,0,0,1,.54-0.74,3.45,3.45,0,0,1,2.55-1,3.5,3.5,0,0,1,2.56,1,2.9,2.9,0,0,1,.64,1,4.14,4.14,0,0,1,.24,1.14Q233.51,312.92,233.51,314.07Zm-15,4.85H217v-4.24h-3.94v4.24H211.6v-9.7h1.48v4.14H217v-4.14h1.47v9.7Zm-18.55,0h-1.35l-4.48-6.83v6.83h-1.48v-9.7H194l4.49,6.81v-6.81h1.47v9.7Zm-15.18,0h-6.21v-9.7h6.21v1.32H180v2.83h4v1.31h-4v2.92h4.73v1.32Zm-14.08,0h-6.21v-9.7h6.21v1.32H166v2.83h4v1.31h-4v2.92h4.72v1.32ZM155,312.07a1.44,1.44,0,0,0-.45-1.12,1.72,1.72,0,0,0-1.2-.41h-2.18v3h2.18a1.73,1.73,0,0,0,1.2-.41A1.4,1.4,0,0,0,155,312.07Zm1.77,6.85h-1.72l-2-4.07h-1.84v4.07h-1.48v-9.7h3.77a3.33,3.33,0,0,1,1.58.36,2.57,2.57,0,0,1,1.06,1,2.89,2.89,0,0,1,.37,1.47,2.59,2.59,0,0,1-.54,1.67,2.65,2.65,0,0,1-1.39.91Zm-15.1-3.76a5.45,5.45,0,0,1-.2,1.59,2.89,2.89,0,0,1-.67,1.15,3.5,3.5,0,0,1-2.67,1.11,3.8,3.8,0,0,1-1-.12,3.46,3.46,0,0,1-.86-0.36,3.64,3.64,0,0,1-.73-0.56,2.91,2.91,0,0,1-.65-1,4.06,4.06,0,0,1-.25-1.14c0-.41,0-1,0-1.77q0-.89,0-1.4a6.77,6.77,0,0,1,.11-1,3.23,3.23,0,0,1,.27-0.81,3,3,0,0,1,.54-0.74,3.46,3.46,0,0,1,2.55-1,3.7,3.7,0,0,1,1.74.39,3.14,3.14,0,0,1,1.19,1.08,4,4,0,0,1,.59,1.54h-1.48a2.5,2.5,0,0,0-.39-0.9,1.84,1.84,0,0,0-.69-0.58,2.2,2.2,0,0,0-1-.2,2,2,0,0,0-.79.16,1.81,1.81,0,0,0-.64.44,2,2,0,0,0-.47,1,12,12,0,0,0-.12,2c0,0.51,0,.92,0,1.21a6,6,0,0,0,.09.8,2.13,2.13,0,0,0,.17.57,2.38,2.38,0,0,0,.3.44,1.83,1.83,0,0,0,.63.43,2.06,2.06,0,0,0,.8.16,2,2,0,0,0,1.58-.69,2.23,2.23,0,0,0,.49-1.52v-0.55h-2.07v-1.25h3.54v1.49Z" transform="translate(-113.09 -107.08)"/></svg>